# xmcd
#
# Track frame offsets: 
#        150
#        12386
#        21911
#        30615
#
# Disc length: 547 seconds
#
# Revision: 0
# Processed by: cddbd v1.5.2PL0 Copyright (c) Steve Scherf et al.
# Submitted via: ExactAudioCopy v0.95b4
#
DISCID=27022104
DTITLE=Heinz - Live It Up (The Joe Meek EP Collection)
DYEAR=2007
DGENRE=Pop/Rock
TTITLE0=Live It Up
TTITLE1=Don't You Understand
TTITLE2=Dreams Do Come True
TTITLE3=When Your Loving Goes Wrong
EXTD=
EXTT0=
EXTT1=
EXTT2=
EXTT3=
PLAYORDER=
